<?xml version="1.0" standalone="no"?><!DOCTYPE svg PUBLIC "-//W3C//DTD SVG 1.1//EN" "http://www.w3.org/Graphics/SVG/1.1/DTD/svg11.dtd"><svg t="1774092915256" class="icon" viewBox="0 0 1024 1024" version="1.1" xmlns="http://www.w3.org/2000/svg" p-id="5295" xmlns:xlink="http://www.w3.org/1999/xlink" width="200" height="200"><path d="M897.142784 916.832256c-35.279872 0-63.865856-28.607488-63.865856-63.865856L833.276928 171.728896c0-35.301376 28.585984-63.86688 63.865856-63.86688s63.865856 28.565504 63.865856 63.86688l0 681.237504C961.00864 888.224768 932.422656 916.832256 897.142784 916.832256M641.678336 916.832256c-35.280896 0-63.865856-28.607488-63.865856-63.865856L577.81248 342.037504c0-35.300352 28.58496-63.865856 63.865856-63.865856 35.279872 0 63.864832 28.565504 63.864832 63.865856l0 510.928896C705.543168 888.224768 676.958208 916.832256 641.678336 916.832256M386.214912 916.832256c-35.280896 0-63.86688-28.607488-63.86688-63.865856L322.348032 512.347136c0-35.301376 28.585984-63.865856 63.86688-63.865856 35.279872 0 63.865856 28.56448 63.865856 63.865856l0 340.619264C450.079744 888.224768 421.494784 916.832256 386.214912 916.832256M130.750464 916.832256c-35.280896 0-63.865856-28.607488-63.865856-63.865856L66.884608 682.655744c0-35.300352 28.585984-63.865856 63.865856-63.865856 35.279872 0 63.86688 28.565504 63.86688 63.865856l0 170.309632C194.61632 888.224768 166.030336 916.832256 130.750464 916.832256" p-id="5296"></path></svg>