<?xml version="1.0" standalone="no"?><!DOCTYPE svg PUBLIC "-//W3C//DTD SVG 1.1//EN" "http://www.w3.org/Graphics/SVG/1.1/DTD/svg11.dtd"><svg t="1774093186389" class="icon" viewBox="0 0 1280 1024" version="1.1" xmlns="http://www.w3.org/2000/svg" p-id="8255" xmlns:xlink="http://www.w3.org/1999/xlink" width="250" height="200"><path d="M1269.82 309.76C915.48-17.98 364.38-17.86 10.18 309.76c-13.32 12.32-13.58 33.18-0.7 45.96l68.48 67.94c12.28 12.2 32.04 12.46 44.8 0.76 291.84-267.36 742.6-267.42 1034.5 0 12.76 11.7 32.52 11.42 44.8-0.76l68.48-67.94c12.86-12.78 12.6-33.64-0.72-45.96zM640 704c-70.7 0-128 57.3-128 128s57.3 128 128 128 128-57.3 128-128-57.3-128-128-128z m405.34-167.18c-230.52-203.86-580.42-203.64-810.68 0-13.8 12.2-14.24 33.38-1.14 46.3l68.88 67.98c12 11.84 31.32 12.64 44.1 1.6 167.9-145.14 419.48-144.82 586.98 0 12.78 11.04 32.1 10.26 44.1-1.6l68.88-67.98c13.12-12.92 12.66-34.12-1.12-46.3z" p-id="8256"></path></svg>